<mxfile host="app.diagrams.net" agent="Mozilla/5.0 (Macintosh; Intel Mac OS X 10.15; rv:135.0) Gecko/20100101 Firefox/135.0" version="26.0.11">
  <diagram name="Seite-1" id="Bt0Od5kYejkrTGKCVneC">
    <mxGraphModel dx="1026" dy="647" grid="1" gridSize="10" guides="1" tooltips="1" connect="1" arrows="1" fold="1" page="1" pageScale="1" pageWidth="827" pageHeight="1169" math="0" shadow="0">
      <root>
        <mxCell id="0" />
        <mxCell id="1" parent="0" />
        <mxCell id="PO5OeeNQ50SsahlkgrON-1" value="User" style="rounded=0;whiteSpace=wrap;html=1;" vertex="1" parent="1">
          <mxGeometry x="120" y="160" width="120" height="60" as="geometry" />
        </mxCell>
        <mxCell id="PO5OeeNQ50SsahlkgrON-2" value="ShoppingList" style="rounded=0;whiteSpace=wrap;html=1;" vertex="1" parent="1">
          <mxGeometry x="560" y="160" width="120" height="60" as="geometry" />
        </mxCell>
        <mxCell id="PO5OeeNQ50SsahlkgrON-3" value="Item" style="rounded=0;whiteSpace=wrap;html=1;" vertex="1" parent="1">
          <mxGeometry x="560" y="440" width="120" height="60" as="geometry" />
        </mxCell>
        <mxCell id="PO5OeeNQ50SsahlkgrON-4" value="&lt;u&gt;id&lt;/u&gt;" style="ellipse;whiteSpace=wrap;html=1;" vertex="1" parent="1">
          <mxGeometry y="165" width="100" height="50" as="geometry" />
        </mxCell>
        <mxCell id="PO5OeeNQ50SsahlkgrON-5" value="firstname" style="ellipse;whiteSpace=wrap;html=1;" vertex="1" parent="1">
          <mxGeometry x="130" y="260" width="100" height="50" as="geometry" />
        </mxCell>
        <mxCell id="PO5OeeNQ50SsahlkgrON-6" value="lastname" style="ellipse;whiteSpace=wrap;html=1;" vertex="1" parent="1">
          <mxGeometry x="130" y="70" width="100" height="50" as="geometry" />
        </mxCell>
        <mxCell id="PO5OeeNQ50SsahlkgrON-7" value="creates multiple" style="rhombus;whiteSpace=wrap;html=1;" vertex="1" parent="1">
          <mxGeometry x="340" y="150" width="120" height="80" as="geometry" />
        </mxCell>
        <mxCell id="PO5OeeNQ50SsahlkgrON-8" value="" style="endArrow=none;html=1;rounded=0;exitX=1;exitY=0.5;exitDx=0;exitDy=0;" edge="1" parent="1" source="PO5OeeNQ50SsahlkgrON-4">
          <mxGeometry width="50" height="50" relative="1" as="geometry">
            <mxPoint x="390" y="240" as="sourcePoint" />
            <mxPoint x="120" y="190" as="targetPoint" />
          </mxGeometry>
        </mxCell>
        <mxCell id="PO5OeeNQ50SsahlkgrON-9" value="" style="endArrow=none;html=1;rounded=0;entryX=0.5;entryY=1;entryDx=0;entryDy=0;exitX=0.5;exitY=0;exitDx=0;exitDy=0;" edge="1" parent="1" source="PO5OeeNQ50SsahlkgrON-5" target="PO5OeeNQ50SsahlkgrON-1">
          <mxGeometry width="50" height="50" relative="1" as="geometry">
            <mxPoint x="150" y="290" as="sourcePoint" />
            <mxPoint x="200" y="240" as="targetPoint" />
          </mxGeometry>
        </mxCell>
        <mxCell id="PO5OeeNQ50SsahlkgrON-10" value="" style="endArrow=none;html=1;rounded=0;entryX=0.5;entryY=1;entryDx=0;entryDy=0;exitX=0.5;exitY=0;exitDx=0;exitDy=0;" edge="1" parent="1" source="PO5OeeNQ50SsahlkgrON-1" target="PO5OeeNQ50SsahlkgrON-6">
          <mxGeometry width="50" height="50" relative="1" as="geometry">
            <mxPoint x="260" y="350" as="sourcePoint" />
            <mxPoint x="310" y="300" as="targetPoint" />
          </mxGeometry>
        </mxCell>
        <mxCell id="PO5OeeNQ50SsahlkgrON-13" value="" style="endArrow=none;html=1;rounded=0;exitX=1;exitY=0.5;exitDx=0;exitDy=0;" edge="1" parent="1" source="PO5OeeNQ50SsahlkgrON-1">
          <mxGeometry relative="1" as="geometry">
            <mxPoint x="330" y="220" as="sourcePoint" />
            <mxPoint x="340" y="190" as="targetPoint" />
          </mxGeometry>
        </mxCell>
        <mxCell id="PO5OeeNQ50SsahlkgrON-14" value="1" style="resizable=0;html=1;whiteSpace=wrap;align=left;verticalAlign=bottom;" connectable="0" vertex="1" parent="PO5OeeNQ50SsahlkgrON-13">
          <mxGeometry x="-1" relative="1" as="geometry" />
        </mxCell>
        <mxCell id="PO5OeeNQ50SsahlkgrON-15" value="" style="resizable=0;html=1;whiteSpace=wrap;align=right;verticalAlign=bottom;" connectable="0" vertex="1" parent="PO5OeeNQ50SsahlkgrON-13">
          <mxGeometry x="1" relative="1" as="geometry" />
        </mxCell>
        <mxCell id="PO5OeeNQ50SsahlkgrON-20" value="" style="endArrow=none;html=1;rounded=0;exitX=1;exitY=0.5;exitDx=0;exitDy=0;entryX=0;entryY=0.5;entryDx=0;entryDy=0;" edge="1" parent="1" source="PO5OeeNQ50SsahlkgrON-7" target="PO5OeeNQ50SsahlkgrON-2">
          <mxGeometry relative="1" as="geometry">
            <mxPoint x="450" y="260" as="sourcePoint" />
            <mxPoint x="610" y="260" as="targetPoint" />
          </mxGeometry>
        </mxCell>
        <mxCell id="PO5OeeNQ50SsahlkgrON-21" value="" style="resizable=0;html=1;whiteSpace=wrap;align=left;verticalAlign=bottom;" connectable="0" vertex="1" parent="PO5OeeNQ50SsahlkgrON-20">
          <mxGeometry x="-1" relative="1" as="geometry" />
        </mxCell>
        <mxCell id="PO5OeeNQ50SsahlkgrON-22" value="n" style="resizable=0;html=1;whiteSpace=wrap;align=right;verticalAlign=bottom;" connectable="0" vertex="1" parent="PO5OeeNQ50SsahlkgrON-20">
          <mxGeometry x="1" relative="1" as="geometry" />
        </mxCell>
        <mxCell id="PO5OeeNQ50SsahlkgrON-23" value="has multiple" style="rhombus;whiteSpace=wrap;html=1;" vertex="1" parent="1">
          <mxGeometry x="560" y="290" width="120" height="80" as="geometry" />
        </mxCell>
        <mxCell id="PO5OeeNQ50SsahlkgrON-24" value="" style="endArrow=none;html=1;rounded=0;exitX=0.5;exitY=1;exitDx=0;exitDy=0;entryX=0.5;entryY=0;entryDx=0;entryDy=0;" edge="1" parent="1" source="PO5OeeNQ50SsahlkgrON-23" target="PO5OeeNQ50SsahlkgrON-3">
          <mxGeometry relative="1" as="geometry">
            <mxPoint x="640" y="380" as="sourcePoint" />
            <mxPoint x="740" y="380" as="targetPoint" />
          </mxGeometry>
        </mxCell>
        <mxCell id="PO5OeeNQ50SsahlkgrON-25" value="" style="resizable=0;html=1;whiteSpace=wrap;align=left;verticalAlign=bottom;" connectable="0" vertex="1" parent="PO5OeeNQ50SsahlkgrON-24">
          <mxGeometry x="-1" relative="1" as="geometry" />
        </mxCell>
        <mxCell id="PO5OeeNQ50SsahlkgrON-26" value="n" style="resizable=0;html=1;whiteSpace=wrap;align=right;verticalAlign=bottom;" connectable="0" vertex="1" parent="PO5OeeNQ50SsahlkgrON-24">
          <mxGeometry x="1" relative="1" as="geometry" />
        </mxCell>
        <mxCell id="PO5OeeNQ50SsahlkgrON-27" value="" style="endArrow=none;html=1;rounded=0;exitX=0.5;exitY=1;exitDx=0;exitDy=0;entryX=0.5;entryY=0;entryDx=0;entryDy=0;" edge="1" parent="1" source="PO5OeeNQ50SsahlkgrON-2" target="PO5OeeNQ50SsahlkgrON-23">
          <mxGeometry relative="1" as="geometry">
            <mxPoint x="250" y="200" as="sourcePoint" />
            <mxPoint x="350" y="200" as="targetPoint" />
          </mxGeometry>
        </mxCell>
        <mxCell id="PO5OeeNQ50SsahlkgrON-28" value="1" style="resizable=0;html=1;whiteSpace=wrap;align=left;verticalAlign=bottom;" connectable="0" vertex="1" parent="PO5OeeNQ50SsahlkgrON-27">
          <mxGeometry x="-1" relative="1" as="geometry">
            <mxPoint y="20" as="offset" />
          </mxGeometry>
        </mxCell>
        <mxCell id="PO5OeeNQ50SsahlkgrON-29" value="" style="resizable=0;html=1;whiteSpace=wrap;align=right;verticalAlign=bottom;" connectable="0" vertex="1" parent="PO5OeeNQ50SsahlkgrON-27">
          <mxGeometry x="1" relative="1" as="geometry" />
        </mxCell>
        <mxCell id="PO5OeeNQ50SsahlkgrON-30" value="&lt;u&gt;id&lt;/u&gt;" style="ellipse;whiteSpace=wrap;html=1;" vertex="1" parent="1">
          <mxGeometry x="400" y="445" width="100" height="50" as="geometry" />
        </mxCell>
        <mxCell id="PO5OeeNQ50SsahlkgrON-31" value="" style="endArrow=none;html=1;rounded=0;entryX=0;entryY=0.5;entryDx=0;entryDy=0;exitX=1;exitY=0.5;exitDx=0;exitDy=0;" edge="1" parent="1" source="PO5OeeNQ50SsahlkgrON-30" target="PO5OeeNQ50SsahlkgrON-3">
          <mxGeometry width="50" height="50" relative="1" as="geometry">
            <mxPoint x="420" y="440" as="sourcePoint" />
            <mxPoint x="450" y="370" as="targetPoint" />
          </mxGeometry>
        </mxCell>
        <mxCell id="PO5OeeNQ50SsahlkgrON-32" value="name" style="ellipse;whiteSpace=wrap;html=1;" vertex="1" parent="1">
          <mxGeometry x="570" y="550" width="100" height="50" as="geometry" />
        </mxCell>
        <mxCell id="PO5OeeNQ50SsahlkgrON-33" value="" style="endArrow=none;html=1;rounded=0;entryX=0.5;entryY=1;entryDx=0;entryDy=0;exitX=0.5;exitY=0;exitDx=0;exitDy=0;" edge="1" parent="1" source="PO5OeeNQ50SsahlkgrON-32" target="PO5OeeNQ50SsahlkgrON-3">
          <mxGeometry width="50" height="50" relative="1" as="geometry">
            <mxPoint x="334" y="565" as="sourcePoint" />
            <mxPoint x="364" y="495" as="targetPoint" />
          </mxGeometry>
        </mxCell>
        <mxCell id="PO5OeeNQ50SsahlkgrON-34" value="price" style="ellipse;whiteSpace=wrap;html=1;" vertex="1" parent="1">
          <mxGeometry x="720" y="360" width="100" height="50" as="geometry" />
        </mxCell>
        <mxCell id="PO5OeeNQ50SsahlkgrON-35" value="" style="endArrow=none;html=1;rounded=0;entryX=1;entryY=0;entryDx=0;entryDy=0;exitX=0;exitY=1;exitDx=0;exitDy=0;" edge="1" parent="1" source="PO5OeeNQ50SsahlkgrON-34" target="PO5OeeNQ50SsahlkgrON-3">
          <mxGeometry width="50" height="50" relative="1" as="geometry">
            <mxPoint x="510" y="590" as="sourcePoint" />
            <mxPoint x="540" y="520" as="targetPoint" />
          </mxGeometry>
        </mxCell>
        <mxCell id="PO5OeeNQ50SsahlkgrON-36" value="shopping_list_id" style="ellipse;whiteSpace=wrap;html=1;" vertex="1" parent="1">
          <mxGeometry x="720" y="445" width="100" height="50" as="geometry" />
        </mxCell>
        <mxCell id="PO5OeeNQ50SsahlkgrON-37" value="" style="endArrow=none;html=1;rounded=0;entryX=1;entryY=0.5;entryDx=0;entryDy=0;exitX=0;exitY=0.5;exitDx=0;exitDy=0;" edge="1" parent="1" source="PO5OeeNQ50SsahlkgrON-36" target="PO5OeeNQ50SsahlkgrON-3">
          <mxGeometry width="50" height="50" relative="1" as="geometry">
            <mxPoint x="650" y="585" as="sourcePoint" />
            <mxPoint x="680" y="515" as="targetPoint" />
          </mxGeometry>
        </mxCell>
        <mxCell id="PO5OeeNQ50SsahlkgrON-38" value="name" style="ellipse;whiteSpace=wrap;html=1;" vertex="1" parent="1">
          <mxGeometry x="570" y="70" width="100" height="50" as="geometry" />
        </mxCell>
        <mxCell id="PO5OeeNQ50SsahlkgrON-39" value="" style="endArrow=none;html=1;rounded=0;entryX=0.5;entryY=0;entryDx=0;entryDy=0;exitX=0.5;exitY=1;exitDx=0;exitDy=0;" edge="1" parent="1" source="PO5OeeNQ50SsahlkgrON-38" target="PO5OeeNQ50SsahlkgrON-2">
          <mxGeometry width="50" height="50" relative="1" as="geometry">
            <mxPoint x="620" y="120" as="sourcePoint" />
            <mxPoint x="590" y="10" as="targetPoint" />
          </mxGeometry>
        </mxCell>
        <mxCell id="PO5OeeNQ50SsahlkgrON-40" value="&lt;u&gt;id&lt;/u&gt;" style="ellipse;whiteSpace=wrap;html=1;" vertex="1" parent="1">
          <mxGeometry x="720" y="70" width="100" height="50" as="geometry" />
        </mxCell>
        <mxCell id="PO5OeeNQ50SsahlkgrON-41" value="" style="endArrow=none;html=1;rounded=0;entryX=1;entryY=0;entryDx=0;entryDy=0;exitX=0;exitY=1;exitDx=0;exitDy=0;" edge="1" parent="1" source="PO5OeeNQ50SsahlkgrON-40" target="PO5OeeNQ50SsahlkgrON-2">
          <mxGeometry width="50" height="50" relative="1" as="geometry">
            <mxPoint x="710" y="100" as="sourcePoint" />
            <mxPoint x="740" y="30" as="targetPoint" />
          </mxGeometry>
        </mxCell>
        <mxCell id="PO5OeeNQ50SsahlkgrON-42" value="user_id" style="ellipse;whiteSpace=wrap;html=1;" vertex="1" parent="1">
          <mxGeometry x="720" y="165" width="100" height="50" as="geometry" />
        </mxCell>
        <mxCell id="PO5OeeNQ50SsahlkgrON-43" value="" style="endArrow=none;html=1;rounded=0;entryX=1;entryY=0.5;entryDx=0;entryDy=0;exitX=0;exitY=0.5;exitDx=0;exitDy=0;" edge="1" parent="1" source="PO5OeeNQ50SsahlkgrON-42" target="PO5OeeNQ50SsahlkgrON-2">
          <mxGeometry width="50" height="50" relative="1" as="geometry">
            <mxPoint x="490" y="270" as="sourcePoint" />
            <mxPoint x="520" y="200" as="targetPoint" />
          </mxGeometry>
        </mxCell>
      </root>
    </mxGraphModel>
  </diagram>
</mxfile>
